<svg xmlns="http://www.w3.org/2000/svg" viewBox="0 0 32 32">
  <rect width="32" height="32" rx="5" fill="#0b0d12"/>
  <path d="M 18.5 16.0 A 2.5 2.5 0 1 1 17.25 13.835" stroke="#4FC3F7" stroke-width="1.6" fill="none" stroke-linecap="round"/>
  <path d="M 18.25 19.897 A 4.5 4.5 0 1 1 20.5 16.0" stroke="#CE93D8" stroke-width="1.6" fill="none" stroke-linecap="round"/>
  <path d="M 12.75 21.629 A 6.5 6.5 0 1 1 19.25 21.629" stroke="#EF5350" stroke-width="1.6" fill="none" stroke-linecap="round"/>
  <path d="M 7.5 16.0 A 8.5 8.5 0 1 1 11.75 23.361" stroke="#FFA726" stroke-width="1.6" fill="none" stroke-linecap="round"/>
  <path d="M 10.75 6.907 A 10.5 10.5 0 1 1 5.5 16.0" stroke="#66BB6A" stroke-width="1.6" fill="none" stroke-linecap="round"/>
  <path d="M 22.25 5.175 A 12.5 12.5 0 1 1 9.75 5.175" stroke="#42A5F5" stroke-width="1.6" fill="none" stroke-linecap="round"/>
  <circle cx="16" cy="16" r="1.4" fill="#e8874b"/>
</svg>